<?xml version="1.0" encoding="UTF-8"?>
<svg width="130px" height="35px" viewBox="0 0 130 35" version="1.1" xmlns="http://www.w3.org/2000/svg" xmlns:xlink="http://www.w3.org/1999/xlink">
    <title>Group 27</title>
    <defs>
        <polygon id="path-1" points="0 0 129.132403 0 129.132403 8.87450828 0 8.87450828"></polygon>
        <polygon id="path-3" points="0 0 27.801835 0 27.801835 23.369197 0 23.369197"></polygon>
    </defs>
    <g id="Page-1" stroke="none" stroke-width="1" fill="none" fill-rule="evenodd">
        <g id="Map-Results" transform="translate(-20.000000, -20.000000)">
            <g id="Group-34" transform="translate(-0.776189, 0.000000)">
                <g id="Group-27" transform="translate(20.776189, 20.000000)">
                    <g id="Group-3" transform="translate(0.000000, 26.125492)">
                        <mask id="mask-2" fill="white">
                            <use xlink:href="#path-1"></use>
                        </mask>
                        <g id="Clip-2"></g>
                        <path d="M126.845663,7.47747253 C126.418593,7.42148131 127.008148,7.24198005 127.184904,7.1837931 C127.361661,7.12505722 127.608132,7.19532071 127.675102,7.2787586 C127.742621,7.36274542 127.272734,7.53346374 126.845663,7.47747253 L126.845663,7.47747253 Z M124.582959,7.87160678 C124.462194,7.82714316 124.281595,7.87160678 124.161379,7.60537403 C124.041162,7.33804342 124.642793,7.56036148 125.003991,7.60537403 C125.36519,7.64928871 124.703176,7.91607039 124.582959,7.87160678 L124.582959,7.87160678 Z M112.716664,7.98907855 C112.345585,8.00280189 112.571197,7.5049192 113.060845,7.51534894 C113.549945,7.52632761 113.088292,7.97535521 112.716664,7.98907855 L112.716664,7.98907855 Z M104.84386,6.18363626 C104.603427,6.27256349 104.48321,6.18363626 104.48321,6.00578181 C104.48321,5.82792736 104.784026,5.60615822 105.024459,5.51723099 C105.265441,5.42775483 105.084293,6.09470904 104.84386,6.18363626 L104.84386,6.18363626 Z M95.7469337,7.54169774 L94.7363471,7.7162586 C94.7978277,7.71735646 93.8690322,7.64654404 93.1971376,7.63501644 C92.5246941,7.6229399 92.1969808,7.44947692 91.9505096,7.498332 C91.7045874,7.54773601 90.1170717,7.46594492 89.6894525,7.45880879 C89.2612844,7.45112372 87.0984864,7.42642171 86.6714161,7.41873664 C86.243248,7.41160051 84.3011213,7.68551832 83.5710397,7.56585082 C82.8409582,7.44618332 81.8561715,7.64270151 81.3692675,7.58067202 C80.8818145,7.51919147 79.4134174,7.54663815 78.8600924,7.64379938 C78.3067675,7.74096061 75.9897192,7.54059988 75.4429814,7.42422598 C74.8962436,7.30730314 74.2622254,7.52687654 74.2062342,7.36603902 C74.150243,7.20465258 72.9837593,7.34463062 72.9837593,7.34463062 L71.8930284,7.52248507 C71.7689695,7.57353589 71.2321125,7.13658482 70.7979061,7.34353275 C70.3631508,7.54938281 68.6554187,7.41269837 67.9203967,7.45277052 C67.2100767,7.49229373 66.3334299,7.58067202 66.1555755,7.87325358 C66.1692988,7.7195522 66.1753371,7.54224668 66.1753371,7.32926048 C66.1753371,6.61894053 65.9431382,6.35215885 66.0589632,5.90807165 C66.0847631,5.81091042 66.0913503,5.70002585 66.0897035,5.58474981 C66.8148446,5.53918833 67.4214161,5.60560929 67.5257135,5.69728118 C67.768891,5.91081631 68.9408641,5.98986274 69.7384644,5.66873664 C70.5360648,5.34870841 71.5620215,5.53754153 72.2339161,5.59133702 C72.9063597,5.64458357 73.308179,5.94045872 73.5535523,5.88666324 C73.7983766,5.83341669 74.2506978,5.69837905 74.4955222,5.69837905 C74.7397976,5.69837905 77.1852963,5.69837905 78.0416326,5.6451325 C78.8985178,5.59188595 79.9381978,5.48539285 80.5480629,5.69892798 C81.1573791,5.91246311 82.0762938,5.69947692 82.6878057,5.69947692 C83.2993176,5.69947692 84.7045874,5.80651895 85.376482,5.8597655 C86.0489256,5.91301205 86.8454281,5.70002585 87.3345278,5.64623037 C87.8247254,5.59353275 88.4334927,5.80706788 88.8611119,5.91356098 C89.2881821,6.02060301 89.9007919,5.80706788 90.5134017,5.70057478 C91.1254626,5.59353275 91.7962593,5.80761682 91.9796031,5.86031443 C92.161849,5.91410992 93.0824105,5.59408168 93.5715102,5.5402862 C94.0337123,5.49033325 95.4208672,5.4403803 95.7787719,5.61439222 C95.7837123,5.63964316 95.7864569,5.66544304 95.7935931,5.69069398 C95.9138095,6.13478118 95.7469337,6.63760427 95.7469337,7.34792422 C95.7469337,7.41599197 95.7469337,7.47911933 95.7469337,7.54169774 L95.7469337,7.54169774 Z M63.0447693,5.79718708 C62.9552932,5.99315634 62.1911777,6.10953024 62.2806539,5.91356098 C62.3701301,5.71759172 62.6105629,5.47825672 62.8175109,5.48758859 C63.0239099,5.49637152 63.1342455,5.60121782 63.0447693,5.79718708 L63.0447693,5.79718708 Z M50.1201301,7.55706788 C49.7649701,7.61690163 49.2308578,7.26997566 49.691413,7.16293363 C50.1525171,7.05644053 50.4747411,7.49723413 50.1201301,7.55706788 L50.1201301,7.55706788 Z M47.4704281,6.43779247 C47.3546031,6.70402522 47.1800422,6.65956161 47.0636683,6.70402522 C46.9472944,6.74848884 46.3083358,6.48170715 46.6569086,6.43779247 C47.0054814,6.39332886 47.586802,6.17101079 47.4704281,6.43779247 L47.4704281,6.43779247 Z M36.7107825,7.89740665 C36.6333829,7.96986588 36.3863628,8.00115508 36.227721,7.91661933 C36.0685303,7.83208357 35.5355159,7.56475295 35.9521564,7.57518269 C36.368248,7.58506349 36.7887311,7.82494743 36.7107825,7.89740665 L36.7107825,7.89740665 Z M33.2755567,7.46649386 C33.2755567,7.46649386 33.2415228,7.70143739 33.0790385,7.712965 C32.2962593,7.76785835 31.6353434,7.70363313 31.5222631,7.61031443 C31.2642643,7.39787717 30.6209143,7.13438909 29.7854375,7.45880879 C28.9499607,7.78322848 27.2784582,7.79146249 26.5708829,7.74150954 C25.8638565,7.69210552 25.8633076,7.42477491 25.6058578,7.47966826 C25.3489569,7.53401268 24.4492549,7.64544618 24.1918051,7.64654404 C23.9343553,7.64764191 21.3626018,7.66026738 20.4623509,7.71845433 C19.5621,7.77609235 18.4691734,7.88807478 17.8258233,7.67783325 C17.1824732,7.46759172 16.218546,7.68606726 15.5751959,7.68881192 C14.9323948,7.69210552 13.453019,7.59274856 12.7459927,7.54334455 C12.0384174,7.49284266 11.2029406,7.71076926 10.6885899,7.76676048 C10.1742392,7.82220276 9.53088917,7.61196123 9.0807637,7.50766387 C8.63008929,7.4033665 7.9878371,7.6196463 7.34448703,7.729433 C6.70223484,7.83976864 5.99465956,7.6295271 5.80143496,7.57737842 C5.60875931,7.52468081 4.64428315,7.84964944 4.12993246,7.90564066 C3.6161307,7.96163187 2.00830448,8.02311242 1.75085466,7.81067516 L1.48626872,7.43081318 L1.48187725,6.93677303 L1.54610247,5.962965 L1.70419532,5.73186399 C1.63942116,5.73131506 3.56068841,6.07330063 4.26771476,6.08153463 C4.97529005,6.08976864 5.55606169,5.98986274 5.8151583,5.93936086 C6.07315705,5.88885897 7.74356169,5.96186713 8.19368716,5.96680753 C8.64381263,5.97229687 11.3462123,5.89654404 11.7957888,5.90148444 C12.2459143,5.90697378 13.858132,5.71155345 14.6271878,5.82682949 C15.3962436,5.94320339 16.4298854,5.74119586 16.9425893,5.80048068 C17.4558421,5.8597655 18.9999921,5.82408482 19.5807637,5.72417892 C20.1620843,5.62427303 22.6009958,5.81200828 23.177376,5.92563752 C23.7537562,6.03926675 24.7824575,6.05134329 24.8433892,6.21163187 C24.9037719,6.37301832 26.1289914,6.22645308 26.1289914,6.22645308 L26.9101238,5.80871468 C27.0396721,5.756566 27.6089161,6.1907724 28.0634331,5.98162874 C28.518499,5.77358294 30.3162562,5.90093551 31.0891545,5.8564719 C31.861504,5.81200828 32.8281759,5.71649386 32.9643114,5.39756349 L33.4413346,5.77303401 L33.4857982,6.77593551 L33.2755567,7.46649386 Z M129.083116,7.26338846 C128.9371,6.71719963 128.924474,5.58529875 128.924474,5.58529875 C128.924474,5.58529875 128.928317,5.48978432 128.927219,5.35968708 C129.098486,4.74817516 128.651655,3.72880565 128.651655,3.10521719 C128.651655,2.3630591 128.871777,1.87341042 128.903066,1.52593551 C128.934355,1.17846061 129.154478,0.593846427 128.966193,0.40446437 C128.77736,0.215082312 127.744816,-0.316285317 127.497247,0.698692726 C127.452235,0.883134382 127.552141,1.13125232 127.395146,1.44688909 C127.322138,1.5945522 127.159653,2.03095433 127.347937,2.66277679 C127.536771,3.29459925 127.473643,3.84737529 127.489562,4.13172284 C127.493954,4.2080246 127.496698,4.30793049 127.498894,4.41607039 L126.34833,4.35294304 C125.625933,4.39740665 123.940707,4.30847943 123.519675,4.48578495 C123.098643,4.66418833 122.556846,4.30847943 122.436629,4.35294304 L121.714233,4.70810301 C121.714233,4.70810301 120.570804,4.84149386 120.510971,4.70810301 C120.450588,4.57526111 119.487759,4.57526111 118.945961,4.48578495 C118.404164,4.39740665 116.117856,4.26401581 115.576059,4.35294304 C115.034261,4.44187027 113.590017,4.48578495 113.108602,4.44187027 C112.627737,4.39740665 111.664358,4.57526111 110.942511,4.48578495 C110.220114,4.39740665 108.715488,4.57526111 108.294456,4.57526111 C107.873424,4.57526111 105.346134,4.66418833 104.924553,4.66418833 C104.503521,4.66418833 102.93906,4.61972472 102.698079,4.66418833 C102.457097,4.70810301 101.915299,4.79703024 101.253286,4.79703024 C101.047985,4.79703024 100.732348,4.77123037 100.396949,4.73609862 L100.301984,4.72566889 C99.5806853,4.64662246 98.806689,4.53079749 98.8467612,4.53079749 C98.9065949,4.53079749 97.5221847,4.79703024 97.4623509,4.53079749 C97.4019682,4.26401581 97.700588,3.99723413 97.5199889,3.4642197 C97.3393898,2.93120527 97.3997725,2.84227805 97.3393898,2.44210552 C97.279556,2.04248194 97.1593396,1.64230941 97.1593396,1.1537586 C97.1593396,1.1537586 97.3942831,0.546089213 96.8991451,0.489000129 C96.4040071,0.431911045 95.9566263,0.693752324 95.8638565,0.796951822 C95.7705379,0.899602387 95.6113471,1.79161933 95.6503214,1.87615508 C95.81061,2.22308106 95.777674,2.39050577 95.8375077,2.9235202 C95.8978904,3.45653463 95.8556225,4.13062497 95.8556225,4.44132133 C95.8556225,4.55769524 95.8298227,4.69932008 95.8045717,4.85466826 C95.4955222,4.81075358 95.5180284,4.81020465 95.1030347,4.81020465 C94.5667267,4.81020465 94.4997568,4.95182949 93.829509,4.85741293 C93.1598101,4.76244743 92.690472,4.62082259 92.0871941,4.66803087 C91.4844651,4.71523915 90.6797286,4.95182949 89.6746313,4.81020465 C88.6695341,4.66803087 87.7314067,4.95182949 86.994189,4.90462121 C86.2569714,4.85741293 85.2518741,4.95182949 84.3137468,4.90462121 C83.3756194,4.85741293 82.9068302,5.14176048 82.2365824,5.18896876 C81.5663346,5.23672598 79.4886213,5.18896876 78.6174638,5.14176048 C77.7463064,5.09400327 77.0766075,4.90462121 76.7412091,4.95182949 C76.4058107,4.9995867 75.3337436,5.09400327 74.3286464,4.95182949 C73.3235491,4.81020465 72.5863315,4.90462121 72.1169933,4.90462121 C71.6476552,4.90462121 70.7764977,4.66803087 70.2407386,4.76244743 C69.7049795,4.85741293 68.5653936,4.95182949 67.8281759,4.90462121 C67.0909582,4.85741293 67.0245372,4.90462121 66.4212593,4.90462121 C66.209371,4.90462121 66.0809205,4.88211493 65.9958358,4.84204279 C65.9672913,4.68340101 65.9431382,4.54122723 65.9431382,4.44187027 C65.9431382,4.13062497 66.0007762,2.57549636 66.0589632,2.04248194 C66.1171501,1.50946751 65.7707731,1.65383702 65.9255724,1.30636211 C65.9628998,1.22237529 66.0073634,0.899602387 65.9178873,0.796951822 C65.8284111,0.693752324 65.3964005,0.431911045 64.9182794,0.489000129 C64.4396094,0.546089213 64.689923,1.34368959 64.689923,1.34368959 C64.689923,1.8322404 64.731642,1.7142197 64.673455,2.11384329 C64.6152681,2.51401581 64.7201144,2.76981882 64.5455535,3.30338219 C64.3709927,3.83639662 64.6196596,4.23986274 64.5614726,4.50609549 C64.5038346,4.77287717 62.9794463,4.53079749 63.0370843,4.53079749 C63.0952712,4.53079749 61.3524074,4.79703024 60.7128998,4.79703024 C60.0739412,4.79703024 59.5508076,4.70810301 59.3175109,4.66418833 C59.085312,4.61972472 57.574647,4.66418833 57.1678873,4.66418833 C56.7605786,4.66418833 54.3200203,4.57526111 53.9138095,4.57526111 C53.5070498,4.57526111 52.0540228,4.39740665 51.3563283,4.48578495 C50.6591828,4.57526111 49.7292894,4.39740665 49.2643427,4.44187027 C48.7993961,4.48578495 47.405105,4.44187027 46.8819714,4.35294304 C46.3588377,4.26401581 44.1504783,4.39740665 43.6278936,4.48578495 C43.1047599,4.57526111 42.1748666,4.57526111 42.1166796,4.70810301 C42.0584927,4.84149386 40.9540385,4.70810301 40.9540385,4.70810301 L40.2568929,4.35294304 C40.140519,4.30847943 39.6179343,4.66418833 39.2111746,4.48578495 C38.8044149,4.30847943 37.1768271,4.39740665 36.4796815,4.35294304 L34.7637154,4.45010427 C34.7401113,4.18057792 34.7115667,3.95496625 34.7115667,3.775465 C34.7115667,3.39670088 34.5210868,2.63862372 34.3942831,2.21210239 C34.2658327,1.78558106 34.7757919,1.64395621 34.7115667,0.980295612 C34.667652,0.51589787 34.6852179,0.398426101 34.7000391,0.207946176 C34.7038816,-0.153252067 33.900243,0.0553426631 33.578568,0.104746678 C33.2568929,0.15360176 33.24811,0.507114934 33.24811,0.507114934 C33.24811,0.790913554 33.0570811,1.83333827 33.3112373,2.49644994 C33.5659425,3.15956161 33.5659425,4.15477805 33.4385899,4.43857667 C33.3112373,4.72292422 33.1838848,4.865098 32.6113471,4.865098 C32.0382606,4.865098 31.9745843,4.81734078 31.2746941,4.865098 C30.5742549,4.91230628 29.4917581,4.81734078 28.9828967,4.72292422 C28.4734864,4.62795872 27.6462436,4.865098 27.2005096,4.865098 C26.7547756,4.865098 26.0543365,4.7701325 25.0997411,4.91230628 C24.1451458,5.05448005 23.1263252,4.95951456 22.8079437,4.91230628 C22.4895623,4.865098 21.8527995,5.05448005 21.0255567,5.10223727 C20.1983139,5.14889662 18.224349,5.19665383 17.5875862,5.14889662 C16.9508233,5.10223727 16.5056382,4.81734078 15.6141702,4.865098 C14.7232512,4.91230628 13.7686558,4.81734078 13.0682166,4.865098 C12.3677775,4.91230628 11.4763095,4.62795872 10.5217141,4.7701325 C9.56711878,4.91230628 8.80300335,4.67571594 8.22991677,4.62795872 C7.65737913,4.58075044 7.21164513,4.72292422 6.57488227,4.81734078 C5.93811941,4.91230628 5.87444312,4.7701325 5.36503283,4.7701325 C4.85617148,4.7701325 5.04720033,4.7701325 4.34676119,4.865098 C3.64687097,4.95951456 3.34550648,4.75201769 2.51771476,4.79977491 C2.16145692,4.82008545 2.02147888,4.76628997 1.96219406,4.67846061 C1.94462819,4.60215885 1.92761125,4.52695496 1.91388791,4.45669147 C1.91224111,4.38093865 1.91004538,4.30024542 1.87546257,4.22339473 C1.87546257,4.22339473 1.87326683,4.22229687 1.87326683,4.22229687 C1.81837348,3.90391544 1.63557863,3.47190477 1.63557863,2.83514191 C1.63557863,2.14238783 2.28880949,0.91881506 1.74701213,0.447281183 C1.20521476,-0.0242526945 0.471839607,0.476923592 0.471839607,0.889721584 C0.471839607,1.04342296 0.471839607,1.61156914 0.455920535,1.87725295 C0.440001464,2.14238783 0.50367775,2.65838532 0.312648892,3.2479399 C0.278066081,3.35388407 0.258304475,3.45159423 0.244581138,3.54546186 C0.238542869,3.54930439 0.2308578,3.5509512 0.225917399,3.55534266 C-0.0370217483,3.79742234 0.269283145,4.21186713 0.182002718,4.55769524 C0.0941733584,4.90352334 -0.00792827273,5.33004467 0.0650798829,5.8482379 C0.138088038,6.36698005 0.0650798829,6.53989411 0.00689293179,7.16183576 C-0.0518429528,7.78432635 0.28410435,8.23390289 0.28410435,8.23390289 C0.780340234,8.56820339 1.92761125,8.65493488 2.75540297,8.55996939 C3.58319469,8.46555283 4.47411376,8.70214316 5.30135655,8.65493488 C6.12914826,8.60717767 6.70223484,8.65493488 7.02061627,8.60717767 C7.33844877,8.55996939 7.91153534,8.46555283 8.1025642,8.60717767 C8.29359306,8.74935145 9.24873735,8.74935145 10.0123038,8.74935145 C10.7764193,8.74935145 10.8400956,8.55996939 11.2858296,8.3700384 C11.7315636,8.18065634 12.1130724,8.65493488 13.1318929,8.60717767 C14.1501646,8.55996939 15.0416326,8.65493488 15.6141702,8.65493488 C16.1872568,8.65493488 18.0969964,8.74935145 18.2880253,8.74935145 C18.4790542,8.74935145 19.115817,8.41779561 19.6246784,8.46555283 C20.1340887,8.51276111 20.64295,8.60717767 21.3433892,8.65493488 C22.0438283,8.70214316 23.6994118,8.65493488 24.2724983,8.65493488 C24.845036,8.65493488 24.7171345,8.70214316 25.4175736,8.79655973 C26.1180128,8.89152522 27.073157,8.79655973 28.4098101,8.65493488 C29.7470121,8.51276111 29.8101395,8.55996939 30.5742549,8.46555283 C31.3378214,8.3700384 31.5288503,8.41779561 31.910908,8.60717767 C32.2935146,8.79655973 32.802376,8.60717767 33.1838848,8.55996939 C33.5659425,8.51276111 33.693844,8.55996939 34.4574105,8.41779561 C34.4837593,8.41285521 34.4996784,8.40187654 34.5232825,8.39528934 C34.626482,8.4929995 34.7933578,8.56985019 35.0848415,8.57369273 C35.9565479,8.58576926 38.7462279,8.70708357 38.9784268,8.52922911 C39.2111746,8.35137466 39.7919463,8.12905659 40.5478277,8.39638721 C41.3031602,8.66261995 42.8138252,8.66261995 43.4533327,8.61815634 C44.0922913,8.57369273 44.0922913,8.35137466 44.3250391,8.39638721 C44.557238,8.44030189 45.3707574,8.52922911 45.6035052,8.52922911 C45.8357041,8.52922911 48.1604375,8.52922911 48.9739569,8.57369273 C49.7874764,8.61815634 50.7755567,8.70708357 51.3563283,8.52922911 C51.9376489,8.35137466 52.8093553,8.52922911 53.3906759,8.52922911 C53.9714475,8.52922911 55.3086495,8.44030189 55.9476081,8.39638721 C56.5871156,8.35137466 57.3424481,8.52922911 57.8068459,8.57369273 C58.2723415,8.61815634 58.8531131,8.44030189 59.2598729,8.35137466 C59.6666326,8.26299636 60.2479532,8.44030189 60.8292737,8.52922911 C61.4100454,8.61815634 62.049004,8.44030189 62.2235648,8.39638721 C62.3975767,8.35137466 63.2698321,8.61815634 63.7347788,8.66261995 C64.1728277,8.7043389 65.4880724,8.74605785 65.8322537,8.60223727 C66.2324262,8.65164128 66.7605002,8.83443614 67.158477,8.64724981 C67.5602963,8.45731882 67.7617549,8.41011054 68.5653936,8.50507604 C69.3695811,8.60004153 69.436551,8.55228432 70.8440165,8.6944581 C72.2509331,8.83663187 73.2565793,8.93104843 73.9937969,8.83663187 C74.7310146,8.74166638 74.5965259,8.6944581 75.1998038,8.6944581 C75.8025328,8.6944581 77.5453967,8.74166638 78.2826144,8.6944581 C79.0198321,8.64724981 79.5555912,8.55228432 80.0918992,8.50507604 C80.6276583,8.45731882 81.2979061,8.78942359 81.4993647,8.78942359 C81.7002744,8.78942359 83.7104688,8.6944581 84.3137468,8.6944581 C84.9164757,8.6944581 85.855152,8.60004153 86.9272192,8.64724981 C87.9992863,8.6944581 88.4016545,8.22072848 88.8704437,8.41011054 C89.3397819,8.60004153 89.4067518,8.78942359 90.2109394,8.78942359 C91.0151269,8.78942359 92.0202242,8.78942359 92.2216828,8.64724981 C92.4225924,8.50507604 93.0258703,8.60004153 93.3607198,8.64724981 C93.6955692,8.6944581 94.2988471,8.64724981 95.1700046,8.6944581 C95.4576458,8.71037717 95.752972,8.69390916 96.0504939,8.66975609 C96.4062028,8.80369586 97.6731414,8.7043389 98.1243647,8.66261995 C98.6057794,8.61815634 99.508775,8.35137466 99.6888252,8.39638721 C99.8694243,8.44030189 100.531438,8.61815634 101.133069,8.52922911 C101.735249,8.44030189 102.33688,8.26299636 102.757912,8.35137466 C103.179493,8.44030189 103.781124,8.61815634 104.262539,8.57369273 C104.743954,8.52922911 105.526184,8.35137466 106.188198,8.39638721 C106.850212,8.44030189 108.234622,8.52922911 108.836253,8.52922911 C109.437884,8.52922911 110.34088,8.35137466 110.942511,8.52922911 C111.544142,8.70708357 112.567354,8.61815634 113.409967,8.57369273 C114.252031,8.52922911 116.659653,8.52922911 116.900086,8.52922911 C117.141068,8.52922911 117.983132,8.44030189 118.224114,8.39638721 C118.465096,8.35137466 118.465096,8.57369273 119.12656,8.61815634 C119.788574,8.66261995 121.353035,8.66261995 122.135814,8.39638721 C122.918044,8.12905659 123.519675,8.35137466 123.760657,8.52922911 C124.00109,8.70708357 126.890127,8.58576926 127.792574,8.57369273 C127.807944,8.57369273 127.817825,8.56985019 127.832646,8.56930126 C128.378286,8.63297754 128.899772,8.61486274 128.949176,8.51221217 C129.010108,8.38540854 129.229133,7.80957729 129.083116,7.26338846 L129.083116,7.26338846 Z" id="Fill-1" fill="#000000" mask="url(#mask-2)"></path>
                    </g>
                    <path d="M50.1199105,33.6823949 C49.7647505,33.7422287 49.2306382,33.3953027 49.6917424,33.2888096 C50.1528465,33.1817676 50.4745215,33.6225612 50.1199105,33.6823949 M47.4707574,32.5631195 C47.3543835,32.8299012 47.1798227,32.7848886 47.0634488,32.8299012 C46.9476238,32.8738159 46.3081163,32.6075831 46.656689,32.5631195 C47.0052618,32.5186559 47.5865824,32.2963378 47.4707574,32.5631195 M64.7621627,31.7369746 L64.3186244,31.3230787 C64.107285,31.593154 63.6412405,31.7227023 63.0725454,31.7841829 C63.075839,31.8237061 63.0692518,31.8692676 63.0445498,31.923063 C62.9550736,32.1190323 62.1909582,32.2354062 62.2809833,32.039437 C62.3133703,31.9680756 62.3693616,31.8945185 62.4324889,31.8259018 C61.2314224,31.8670718 59.8387781,31.7474043 59.3002744,31.9697224 C58.8715573,32.1942362 58.3423854,31.7155662 58.2199732,31.7715574 L57.4816577,32.2216829 C57.4816577,32.2216829 56.3305441,32.3715417 56.2751018,32.1953341 C55.333132,31.8291954 52.5231414,31.5349671 51.3418365,31.6206007 C47.9011213,31.8044934 44.0739569,31.6568303 40.6502587,31.7951615 C39.2340102,31.6667111 38.4089632,31.7946126 36.9641702,31.8890292 C36.3005096,31.874208 34.7025642,31.5377117 34.7634958,31.5393585 C34.5538032,31.6826302 34.5669776,32.6438127 34.5411777,32.8529564 C34.3364256,33.9403937 35.1411621,33.9991295 36.0375705,33.9392958 C35.8465416,33.830607 35.6511213,33.6933736 35.9519368,33.7005097 C36.2143271,33.7070969 36.4778151,33.8048071 36.6177932,33.8937343 C36.6836652,33.8887939 36.7495372,33.8838535 36.8137624,33.880011 C37.2968239,33.8229219 38.2064067,33.475447 38.3864569,33.5347318 C38.567056,33.5934677 39.2285209,33.8284112 39.8328967,33.7131352 C40.4383703,33.5984081 41.043844,33.3667582 41.464876,33.4847789 C42.6022662,34.0392017 43.6232825,33.549553 44.9050422,33.5528466 C45.5681539,33.6126804 46.9558578,33.7328968 47.5585868,33.7345436 C48.1629626,33.7361904 49.0703496,33.5056383 49.6714318,33.7405819 C51.0036934,34.0759802 54.5223572,33.6165229 55.6471219,33.7570499 C55.8886527,33.7575988 56.7345592,33.6434206 56.9760899,33.5863316 C57.2187185,33.5281446 57.2159739,33.8201772 57.8790855,33.880011 C58.5427461,33.9403937 60.1115981,33.9447851 60.8993176,33.5973102 C61.6875862,33.2487375 62.2881194,33.5424169 62.5274544,33.7762625 C62.6328496,33.8789131 63.6642957,33.9063598 64.3998666,33.8525643 C64.8955535,33.4062814 64.7610648,32.3248824 64.7621627,31.7369746" id="Fill-4" fill="#F96D02"></path>
                    <path d="M126.845663,33.6029642 C126.418593,33.546973 127.008148,33.3674718 127.184904,33.3092848 C127.361661,33.2505489 127.608132,33.3208124 127.675102,33.4042503 C127.742621,33.4882371 127.272734,33.6589555 126.845663,33.6029642 M128.022577,32.7867001 C127.996228,32.6066499 128.009402,31.7783093 127.796965,31.6547992 C127.858446,31.6537014 126.239092,31.9435383 125.566099,31.9561637 C124.102094,31.8749216 123.265519,31.7651349 121.830058,31.8754705 C118.3597,31.7563519 114.480936,31.8837045 110.993013,31.7250627 C109.795789,31.6515056 106.947373,31.9051129 105.992229,32.2202008 C105.948863,32.3387704 105.235249,32.2866217 104.92071,32.2575282 C104.896008,32.2800345 104.870757,32.2992472 104.84386,32.309128 C104.603427,32.3980552 104.48321,32.309128 104.48321,32.1312735 C104.48321,32.1202949 104.487602,32.1087673 104.489798,32.0977886 L104.021557,31.85516 C103.897498,31.8068538 103.36119,32.2191029 102.925886,32.0258783 C101.995993,31.6992629 98.542652,32.2317284 97.8394682,31.4687108 L97.3898917,31.8255176 C97.3909895,32.3321832 97.254854,33.2631744 97.7571282,33.6479768 C98.5025799,33.6940872 99.5482982,33.6704831 99.6547913,33.5815558 C99.8974199,33.3806462 100.506187,33.1275878 101.305434,33.4278545 C102.103584,33.7270232 103.694393,33.7231807 104.366836,33.671032 C105.03928,33.6194322 105.036535,33.3685696 105.281909,33.4185226 C105.526733,33.4673777 106.384716,33.5661857 106.62954,33.5656368 C107.769126,33.4443225 111.335547,33.8401035 112.685924,33.5513645 C113.295789,33.348808 114.215252,33.547522 114.827313,33.5464241 C115.438825,33.5447773 116.845193,33.4410289 117.517636,33.3894291 C118.816413,33.3866844 119.851702,33.8082654 121.003913,33.3306932 C121.431532,33.2296895 122.04524,33.4289523 122.658399,33.5277604 C123.271008,33.6265684 123.941805,33.4245609 124.125149,33.374059 C124.307395,33.3230082 125.229054,33.6221769 125.718703,33.6715809 C126.859387,33.7303168 128.289358,33.993256 128.022577,32.7867001" id="Fill-6" fill="#F96D02"></path>
                    <path d="M16.0732982,4.87496863 C16.0732982,5.34760038 17.0789444,6.58873902 17.4626489,7.3863394 C17.9050893,8.30196048 18.4666483,8.77459222 18.732881,9.51290778 C19.0287562,10.2528701 19.2357041,11.2272271 19.5892173,11.3161543 C19.9152838,11.434175 20.061849,11.5231023 20.061849,12.1137547 C20.061849,12.6753137 20.7123352,13.5903858 21.0071125,14.3292503 C21.2744431,15.0675659 21.5099356,14.8320734 21.6866922,15.6291248 C21.8650956,16.4569166 22.2784425,16.7226004 22.4551991,17.2243256 C22.6034111,17.7556932 22.9871156,18.1695891 23.3708202,18.9973808 C23.8434519,19.8537171 23.8143584,19.9124529 24.0503998,20.5634881 C24.3160836,21.2430678 24.3764663,21.8035289 24.7887154,21.951192 C24.9369274,22.0104768 25.1147819,22.0104768 25.3508233,22.0104768 C25.9711182,22.0104768 26.7989099,21.8924561 27.3000862,21.8924561 C27.4482982,21.8924561 27.5372254,21.8035289 27.5372254,21.6564147 C27.5372254,21.1837829 26.8274544,20.0903074 26.385014,19.4398212 C25.823455,18.6422208 25.5572223,17.7858846 25.2915385,17.4900094 C25.0845905,17.1952321 24.907834,16.1610414 24.6712436,16.0430207 C24.2875391,15.8651662 23.1051363,13.2066813 22.8103591,12.5863864 C21.8058107,10.4581713 20.5646721,8.18393977 19.29444,6.08646487 C18.8218082,5.31905583 18.732881,4.90515997 18.4381037,4.49126412 C18.1707731,4.04717691 17.758524,2.83622961 17.4324575,2.83622961 C17.048753,2.83622961 16.5761213,3.48671581 16.4581006,3.92970514 C16.3104375,4.28431619 16.0732982,4.52035759 16.0732982,4.87496863 M14.3013409,8.89371079 C14.0054657,9.12920326 13.9769212,9.27741531 13.9769212,9.36634253 C13.9769212,9.60183501 13.9467298,9.71985571 13.8287091,9.92680364 C13.1189381,10.9313519 11.1103904,14.4467221 11.1103904,15.3332497 C11.1103904,15.5116531 11.2586025,15.5401976 11.5830222,15.5401976 C13.2973415,15.5401976 12.7945184,15.6291248 13.4740981,15.6291248 C13.7397819,15.6291248 14.2124136,15.4221769 14.242605,15.4221769 C14.7745215,15.4221769 15.1280347,15.4814617 15.6605002,15.4814617 C16.7528779,15.4814617 17.4033641,15.5994824 18.4079124,15.5994824 C18.732881,15.5994824 19.9438283,15.5994824 19.9438283,15.0384724 C19.9438283,14.7727886 19.7670717,14.5658407 19.6194086,14.2112296 C19.4124607,13.7385979 18.7625234,12.7038582 18.5561244,11.8766154 C18.4079124,11.2272271 17.4928402,10.6063833 17.0185617,9.27741531 C16.6650485,8.36179423 15.9552775,6.97244354 15.5413816,6.97244354 C15.0989412,6.97244354 14.861802,8.30196048 14.3013409,8.89371079 M7.09329506,20.622224 C6.85615579,21.0646644 6.41371539,21.3605395 6.32423923,21.8633626 C6.32423923,22.0401192 6.64920786,22.0692127 7.0038189,22.0692127 C8.36352719,22.0401192 8.83615893,21.951192 8.83615893,21.8924561 C8.83615893,21.6564147 8.36352719,21.3308971 8.27405102,21.0361198 C8.24440862,20.7698871 8.21531514,20.5332967 8.21531514,20.3565402 C8.21531514,20.0903074 8.30424237,19.5589398 8.30424237,19.5002039 C8.30424237,19.3810853 8.27405102,19.3218005 8.1851238,19.3218005 C7.94963133,19.3218005 7.29859619,20.2972553 7.09329506,20.622224 M21.333179,4.93370452 C21.6866922,5.67256901 22.307536,7.20958281 22.8690949,7.88806462 C23.4010115,8.56764429 23.5486746,9.01118256 23.8736432,9.77859159 C24.2875391,10.6063833 24.3764663,11.1981336 25.056046,12.1137547 C25.3804657,12.4381744 26.030403,13.9740903 26.2071596,14.3001568 C26.8274544,15.0675659 27.0645937,15.7471455 27.4181069,16.4267252 C27.8320027,17.1063049 28.3348258,17.7858846 28.5417737,18.4067284 C28.7772662,19.2043287 29.3091828,19.7944322 29.8416483,20.5634881 C30.0485962,21.0059285 30.2253528,21.4198243 31.288637,21.6564147 C31.7327242,21.7744354 32.0862373,21.744244 32.3233766,21.951192 C32.3821125,22.0104768 32.4123038,22.3063519 32.4123038,22.5132999 C32.4123038,22.6022271 32.3821125,22.6900565 32.2344494,22.7196989 C32.1164287,22.7789837 31.2600924,22.8679109 30.4915855,22.8679109 C30.2253528,22.8679109 29.9294776,22.8679109 29.7230786,22.8377196 C29.4568459,22.809175 29.1911621,22.809175 28.8963848,22.809175 C28.3633703,22.809175 24.8776426,22.8377196 24.5532229,22.8377196 C24.2282543,22.8377196 23.3708202,22.809175 23.2527995,22.7487923 C22.8981884,22.7487923 22.5732198,22.809175 22.0418522,22.809175 C21.6866922,22.809175 21.4797442,22.7487923 21.4797442,22.5720358 C21.4797442,22.2761606 21.5692204,22.0692127 22.0127587,22.0692127 C22.5144839,22.0692127 22.8389036,21.9226474 22.8389036,21.4500157 C22.8389036,21.3018036 22.7510742,21.2716123 22.7510742,21.0059285 C22.7510742,20.5920326 22.4853904,20.2083281 22.3662719,19.8537171 C22.0418522,19.2630646 21.4210084,17.4021801 20.8001646,17.047569 C20.623408,16.9295483 20.4466514,16.899357 20.2989883,16.899357 C20.0920404,16.899357 19.9152838,16.9586418 19.7083358,16.9586418 C18.8503528,16.9586418 17.1074889,16.9295483 16.694142,16.899357 C16.4581006,16.8406211 16.3691734,16.8406211 15.9854688,16.8406211 C14.7152367,16.8406211 15.7483296,16.9295483 12.2916953,16.9295483 C11.4655504,16.9295483 11.3464318,16.7516939 11.0516545,16.7516939 C10.9034425,16.7516939 10.7266859,16.8104297 10.4900956,16.9586418 C10.2540542,17.0761136 10.2831476,17.8160759 10.0169149,18.6422208 C9.98837035,18.7311481 9.98837035,18.8491688 9.98837035,18.9973808 C9.98837035,19.4107277 10.0471062,20.060665 10.0471062,20.3565402 C10.0471062,20.8291719 10.2831476,21.3308971 10.519738,21.7744354 C10.6964946,21.8924561 11.1993176,22.0401192 11.287147,22.0401192 C11.5533798,22.0401192 11.7899701,22.099404 11.9079908,22.1295954 C12.1736746,22.2168758 12.203866,22.4540151 12.203866,22.6022271 C12.203866,22.6900565 12.1451301,22.8679109 11.8492549,22.8679109 C11.7010429,22.8679109 11.4062656,22.8964555 11.0214632,22.8964555 C10.8145153,22.8964555 10.6075673,22.8964555 10.3720749,22.8679109 C9.8401583,22.8377196 7.29859619,22.7789837 5.61501715,22.7789837 C4.1378371,22.7789837 4.40352091,22.8377196 3.60592054,22.8377196 C3.22221602,22.8377196 2.98562568,22.7789837 2.98562568,22.6022271 C2.98562568,22.3359944 3.07455291,22.0104768 3.51699331,22.0104768 C4.46280573,22.0104768 5.40806922,21.6267723 5.82196508,20.7989806 C6.29459682,19.6769605 6.73813509,19.5589398 6.91489168,18.8491688 C7.0038189,18.6136763 8.54028377,16.2790621 8.77687411,15.8360728 C9.04310686,15.5401976 9.78142242,14.2112296 9.98837035,13.6496706 C10.4308107,12.3794385 11.1993176,11.285963 11.8492549,10.0157309 C12.1149387,9.48436324 12.7352336,9.48436324 12.7945184,8.86351945 C12.8532543,8.3908877 13.0014663,7.80023526 13.2973415,7.32760351 C13.6508547,6.58873902 14.0943929,6.11610728 14.3891702,5.4365276 C14.5082888,5.19993726 15.0402054,4.6680207 15.3349826,3.81168444 C15.571573,2.98389272 15.926733,2.33450439 16.2802461,1.92060853 C16.6348572,1.44797679 17.3446282,0.148102258 18.0829437,0.148102258 C18.6148603,0.148102258 18.9398289,0.443977415 19.6194086,1.59618883 C20.0031131,2.12755646 21.0071125,4.2255803 21.333179,4.93370452" id="Fill-10" fill="#000000"></path>
                    <path d="M55.3926363,4.40228199 C55.5408484,5.08186167 55.5995843,5.79163269 55.5995843,6.44102102 C55.5995843,6.64796895 55.5693929,6.85491688 55.5693929,7.06186481 C55.4217298,8.65651662 54.800886,9.2180756 53.7677932,10.1046032 C53.323706,10.4883077 51.7290542,11.7887312 51.8767173,11.7887312 C52.4382762,11.7887312 54.800886,11.0504156 55.8350767,10.0749608 C56.8698164,9.12914837 57.7261527,7.91820107 57.7261527,6.85491688 C57.7261527,5.46556619 57.3122568,4.13659818 56.6041326,3.13204987 C56.2791639,2.65941813 55.2147819,2.27571361 54.8898133,2.03857434 C54.6543208,1.94964711 54.1514977,1.89091123 53.8265291,1.89091123 C53.6497725,1.89091123 53.5015604,1.92110257 53.5015604,1.97983846 C53.5015604,2.12750157 55.1856884,3.39773369 55.3926363,4.40228199 M49.3351552,13.4728592 C49.3351552,13.738543 50.2216828,14.5361434 50.3698948,14.6536151 C50.6064852,14.8320185 51.3738942,16.0720593 51.7290542,16.751639 C51.994738,17.4312186 52.5562969,17.8747569 52.9701928,18.8491139 C53.3538973,19.8245687 54.1811401,20.119346 54.5352022,20.6523604 C54.9485491,21.183728 55.8065322,21.5377902 56.3077085,21.8336653 C56.7808892,22.1295405 57.046573,22.158085 57.6674168,22.158085 C58.2877116,22.158085 58.0807637,22.3364884 59.0249293,22.3364884 C59.7347003,22.3364884 60.6799638,22.1295405 60.6799638,21.9511371 C60.4444714,21.7156446 60.3555441,21.7743805 59.3208045,21.5674326 C58.2877116,21.4197694 57.756344,20.8582105 57.1053089,20.5041484 C56.5448478,20.0908014 55.7763409,19.4112218 55.4804657,18.9973259 C55.1856884,18.6136214 54.2689695,17.5201459 54.1224042,17.1364413 C53.885265,16.7818303 52.7330535,15.3924796 52.3784425,14.8907544 C51.994738,14.3879313 49.8681696,13.3839319 49.4833672,13.3839319 C49.3955379,13.3839319 49.3351552,13.4135743 49.3351552,13.4728592 M54.1811401,6.26426443 C54.1811401,5.23007371 53.9747411,4.72725063 53.5893898,3.95984159 C53.2951614,3.2209771 52.5853904,2.54139743 51.8179814,2.36354297 C51.433179,2.3344495 51.3738942,1.83162641 49.6612217,1.83162641 C49.3351552,1.83162641 48.8927148,1.6839633 48.4788189,1.6839633 C48.0363785,1.6839633 47.8294306,1.89091123 46.6772192,1.89091123 C45.9674481,1.89091123 45.2291326,1.92110257 44.9628998,2.71815402 C44.7274074,3.16114335 44.6681225,3.57449028 44.6681225,4.13659818 C44.6681225,4.66796581 44.7559519,5.25861826 44.7559519,5.79163269 L44.7559519,9.98548463 C44.7559519,10.3406446 44.7274074,10.7243491 44.7274074,11.0789602 C44.7274074,11.4637625 44.7559519,11.7887312 44.9628998,11.9369432 C45.0518271,11.9956791 45.2000391,12.0247726 45.406987,12.0247726 C45.8796188,12.0247726 46.5290071,11.8765605 46.7057637,11.8474671 C47.0609237,11.7585398 48.1538503,11.7887312 49.3351552,11.6410681 C50.31061,11.4637625 51.3738942,10.7243491 52.4382762,9.92674875 C53.4126332,9.10060383 54.1811401,7.44556932 54.1811401,6.26426443 M39.3495059,1.53739806 C39.3495059,1.6839633 40.20694,2.12750157 40.20694,4.55049404 C40.20694,4.96384097 40.4138879,5.37773683 40.4138879,5.96838927 C40.4138879,6.38228513 40.2947693,6.79563206 40.2947693,7.32754862 C40.2947693,7.74144448 40.3249607,8.125149 40.3249607,8.50885351 C40.3249607,10.4295718 40.4429814,12.3491923 40.4731727,14.5657858 C40.4731727,14.9198479 40.2947693,15.215723 40.2947693,15.6581634 C40.2947693,16.3091986 40.4731727,16.9294934 40.4731727,17.7270938 C40.4731727,18.3177462 40.3540542,18.9973259 40.3540542,19.5286935 C40.3540542,19.6467142 40.3836966,19.7658328 40.3836966,19.9425894 C40.3836966,20.267558 40.2662248,20.7703811 39.9412562,21.183728 C39.7041169,21.5674326 39.3495059,21.6267174 39.3495059,21.8336653 C39.3495059,21.9225925 39.5273603,21.9225925 39.7634017,21.9225925 C40.3540542,21.9225925 42.6886683,21.8633077 42.7172129,21.5674326 C42.7474042,21.4197694 42.7775956,21.2715574 42.7775956,21.0948008 C42.7775956,20.680905 42.6886683,20.2082732 42.6886683,19.6769056 C42.6886683,18.9083987 42.6293835,18.4357669 42.5404563,18.1107983 C42.510265,17.9927776 42.510265,17.816021 42.510265,17.5788817 C42.510265,17.10625 42.5404563,16.4266703 42.5404563,15.8063755 C42.5404563,14.8320185 42.3636997,14.7727337 42.3636997,13.4728592 C42.3636997,11.6696126 42.3927932,10.1046032 42.3927932,8.47976004 C42.3927932,7.91820107 42.3049638,7.50430521 42.3049638,7.14969417 C42.3049638,6.76598965 42.510265,6.44102102 42.510265,5.93819793 C42.510265,5.46556619 42.4224356,4.66796581 42.3927932,4.13659818 L42.3927932,2.42227886 C42.3927932,1.33045013 41.0632762,1.33045013 40.6795717,1.33045013 C40.2360335,1.33045013 39.3495059,1.33045013 39.3495059,1.53739806 M55.8065322,11.6696126 C54.7717926,12.202627 52.9701928,12.7932795 51.7586966,12.9700361 C52.3784425,13.176984 53.323706,13.6205223 53.678866,13.9454909 C54.4473729,14.6536151 54.800886,15.2459144 55.6874136,16.1022506 C56.5146564,16.9294934 57.4901113,18.1695342 57.9632919,18.8205693 C58.7894368,19.9123981 61.4188283,21.5377902 62.6314224,21.5377902 C63.1918835,21.5377902 63.3093553,21.9511371 63.3093553,22.3062971 C63.3093553,22.7789288 61.8612687,22.7201929 60.504854,22.9265919 C60.3264506,22.9556854 60.0305755,22.9858767 59.6457731,22.9858767 C58.4644682,22.9858767 56.6041326,22.8376647 55.8652681,22.6900016 C53.3538973,22.1882763 52.8219808,20.829117 51.5522976,18.8491139 C51.1082104,18.1409896 50.9901897,17.5788817 50.5768427,17.46141 C50.1338534,17.3131979 49.9269055,15.7185461 48.8625234,14.505952 C48.3311558,13.9740354 47.7701458,13.6205223 47.2376803,13.4728592 C46.3220592,13.4728592 46.1453026,13.4426678 45.6726708,13.4426678 C45.0518271,13.4426678 44.5791953,13.531595 44.5791953,14.1524388 C44.5791953,14.3001019 44.6681225,14.8320185 44.6681225,15.4814068 C44.6681225,15.8063755 44.6384801,16.1609865 44.5791953,16.544691 C44.549004,16.9585869 44.549004,17.4021252 44.549004,17.8451145 C44.549004,18.7316421 44.5791953,19.5286935 44.5791953,19.7070969 C44.5791953,20.5634332 45.2291326,21.3604846 45.7017643,21.5674326 C46.1743961,21.7743805 47.0609237,21.6569087 47.0609237,22.2470122 C47.0609237,22.867856 46.4400799,22.9265919 45.7017643,22.9265919 C44.9628998,22.9265919 44.8152367,22.7487375 44.1954908,22.7487375 C43.7821439,22.7487375 42.7775956,22.6900016 42.2160366,22.6900016 C41.9201614,22.6900016 40.6795717,22.8091201 40.2662248,22.8091201 C39.7634017,22.8091201 37.1927461,22.867856 36.7201144,22.867856 C36.3666012,22.867856 36.0707261,22.7789288 36.0707261,22.3952243 C36.0707261,22.0104219 36.632285,21.8336653 36.8979688,21.8336653 C37.9025171,21.8336653 38.2274858,21.390676 38.7001175,20.7110963 C39.083822,20.1495373 39.083822,19.0862531 39.083822,18.1997255 C39.083822,17.6381666 38.9658013,17.4899545 38.9658013,16.9585869 C38.9658013,16.6923541 38.9959927,16.3091986 39.083822,15.7185461 C39.083822,15.3633861 38.9959927,14.8320185 38.9959927,14.5948792 C38.9959927,14.2699106 39.0245372,13.8862061 39.0245372,13.3839319 C39.0245372,13.1478905 39.0245372,12.821824 38.9959927,12.5270467 C38.9959927,12.202627 39.2616765,11.9956791 39.2616765,11.6410681 C39.2616765,11.2573636 39.0245372,10.9614884 39.0245372,10.4586653 C39.0245372,10.1046032 39.2029406,9.69125627 39.2029406,9.27736041 C39.2029406,8.83327321 38.93561,8.59778074 38.93561,7.68215966 C38.93561,7.3566421 39.083822,6.91365276 39.083822,6.64796895 C39.083822,6.32300031 38.9658013,5.4068303 38.9658013,5.05167033 C38.9658013,3.60468162 38.8477806,3.28026192 38.316413,2.36354297 C38.0205379,1.83162641 37.5479061,1.44792189 36.3364099,1.44792189 C36.1596533,1.44792189 35.9817988,1.27006744 35.9817988,1.03457497 C35.9817988,0.916554266 36.0114412,0.798533563 36.0992706,0.679414994 C36.2183892,0.561943225 37.7833986,0.561943225 38.4042424,0.561943225 C38.7001175,0.531751882 38.9658013,0.531751882 39.2314852,0.531751882 C40.9458045,0.531751882 42.658477,0.472467064 44.4315322,0.472467064 C46.233132,0.472467064 48.0363785,0.354995295 50.1338534,0.354995295 C52.2016859,0.354995295 54.1811401,0.650870452 55.1269525,0.916554266 C56.1309519,1.21133156 56.8983609,1.35899467 57.4313754,1.62522742 C58.3766389,2.09785916 58.9371,2.80708124 59.9125548,4.19533407 C60.059669,4.49120922 60.1776897,5.67251412 60.1776897,6.44102102 C60.1776897,7.50430521 59.7347003,8.98148526 57.6970592,10.7545405 C56.7517957,11.5230474 57.0767643,11.0202243 55.8065322,11.6696126" id="Fill-12" fill="#000000"></path>
                    <path d="M87.9708515,14.2412563 C88.2354375,14.4783955 88.2667267,14.8319087 88.2958202,15.3649231 C88.3243647,15.6893428 88.3847474,16.3689225 88.3847474,16.9008391 C88.3847474,17.6089633 88.2958202,17.4020154 88.2958202,20.1505254 C88.2958202,20.5342299 88.3243647,20.7702713 88.5313126,20.7702713 C88.7091671,20.7702713 90.1265134,20.1796189 90.2154406,19.5587751 C90.2154406,18.7024388 90.2154406,18.288543 90.1863471,18.0530505 C90.1863471,17.4613002 90.2752744,16.4869432 90.2752744,15.4527525 C90.2752744,14.8319087 90.4223885,14.5069401 90.8961182,14.0930442 C91.2210868,13.8273604 91.4856727,13.6796973 91.4856727,13.5029407 C91.4856727,13.2668993 91.2496313,13.236708 91.0141389,13.236708 C90.4822223,13.236708 89.9508547,13.2959928 89.3300109,13.3261841 C88.6202399,13.2959928 87.9417581,13.236708 87.1430598,13.236708 C86.9652054,13.236708 86.8762781,13.2668993 86.8762781,13.38492 C86.8762781,13.6796973 87.6458829,13.9755725 87.9708515,14.2412563 M71.9881037,4.66950282 C71.3958045,4.84625941 70.8353434,5.61476631 70.4796345,5.99847083 C70.0970278,6.35308187 69.6232982,7.12158877 69.179211,8.30289366 C68.7367706,9.42546267 68.4985335,10.6967927 68.4985335,11.7600769 C68.4985335,12.1437814 68.4408954,12.5285838 68.4408954,12.9408328 C68.4408954,13.1477807 68.4408954,13.3547287 68.4985335,13.5616766 C68.6763879,14.359277 68.8256978,15.7486277 69.0902838,16.4567519 C69.3872568,17.1665229 70.1261213,18.288543 70.6289444,18.6437029 C71.160312,19.0570499 71.9881037,20.0028623 72.4014506,20.327282 C72.7840573,20.6522506 73.9675579,21.4800423 74.586206,21.6277055 C75.5627587,21.8637469 76.5969494,22.2183579 77.3934519,22.2485492 C77.4532857,22.2485492 77.6289444,22.2485492 77.6289444,22.1003372 C77.6289444,21.804462 76.5656602,21.4800423 75.6203967,21.037053 C74.3210711,20.4167582 73.7293208,19.3820185 73.2868804,19.0861434 C72.84444,18.7913661 71.2783327,16.2799953 71.1894055,15.3934677 C71.0713848,14.4783955 71.0422913,13.8273604 71.0422913,13.3261841 C71.0422913,12.5285838 70.8353434,11.7886214 70.8353434,10.9624765 C70.9824575,10.2828968 71.3359707,9.36617785 71.4561872,8.77552541 C71.5742079,8.24415778 71.8387938,7.26870295 72.0770309,6.7960712 C72.3125234,6.29434598 72.6951301,5.61476631 73.2577869,5.08284975 C73.7897035,4.49109944 74.2035993,4.19632215 74.528019,3.81261763 C74.792605,3.48710006 76.4190949,2.48255176 76.3010742,2.48255176 C75.4134488,2.48255176 74.4105473,2.74823557 73.7007762,3.3992707 C73.2577869,3.81261763 72.5771094,4.55148212 71.9881037,4.66950282 M86.9366608,19.2052619 C86.9366608,18.7611747 86.8471847,18.3187343 86.8471847,17.875196 C86.8471847,17.1363316 86.9075673,16.398016 86.9075673,15.4823949 C86.9075673,13.7988159 83.8933735,13.6796973 83.8933735,12.7640762 C83.8933735,12.2025173 84.7497097,12.2025173 85.2525328,12.2025173 C86.2867235,12.2025173 86.5825987,12.3501804 88.5022192,12.3501804 C90.2439852,12.3501804 91.2787248,12.0844965 92.8761213,12.0844965 C94.1150642,12.0844965 94.5887938,12.2612531 94.5887938,12.6460555 C94.5887938,13.5616766 92.0170404,12.9122883 92.0170404,16.5456791 C92.0170404,16.9886684 91.9594023,17.9048385 91.9594023,18.5256822 C91.9594023,19.8244589 92.1059676,19.6477023 92.1059676,20.2976396 C92.1059676,20.9481258 91.9594023,21.2429031 91.367652,21.2429031 C89.4480316,21.2429031 86.5513095,23.6066107 81.1750548,23.6066107 C76.1830535,23.6066107 74.2612373,22.4538504 71.0110021,21.037053 C70.5685617,20.8301051 70.5685617,20.327282 70.0970278,19.8546503 C69.6232982,19.4709457 69.1193772,19.2343554 68.8256978,18.8204595 C67.7602179,17.2252588 67.6421972,16.249804 67.1706633,14.8319087 C66.9346219,14.1825204 66.9033327,13.38492 66.9033327,12.675149 C66.9033327,11.3763723 67.1102806,10.1939696 67.346322,9.8388096 C67.7602179,9.18942127 67.9089789,7.62331399 68.3519682,7.03266154 C69.5656602,5.31889115 70.9824575,4.01956556 72.7840573,2.68949969 C73.1090259,2.45345828 73.5827555,2.15758312 74.792605,1.7442362 C76.0342926,1.33034034 76.979556,0.946635822 78.1317675,0.857708595 C79.7269682,0.769879235 81.2930755,0.562931305 82.9766545,0.532739962 C83.3016232,0.532739962 83.5974983,0.591475847 83.921918,0.591475847 C84.8677304,0.591475847 86.2867235,1.00537171 86.6693302,1.06465652 C87.0832261,1.09429893 87.7639036,1.27105552 87.999945,1.27105552 C88.2667267,1.27105552 89.5660523,0.946635822 89.9195655,0.946635822 C90.2752744,0.976827164 90.5711495,1.12339241 90.657881,2.12903858 C90.7468082,3.10339555 91.0141389,3.51674247 91.1030661,4.22541562 C91.1897976,4.93518664 91.6926207,6.02866217 91.6926207,6.73678639 C91.6926207,7.03266154 91.3961966,7.32743883 91.0141389,7.32743883 C90.3642016,7.32743883 90.3642016,6.64895703 90.0084927,6.02866217 C88.8271878,3.93063833 86.5513095,2.80752039 84.7206163,2.33433971 C83.921918,2.24705928 83.5398603,1.98082654 82.9190165,1.98082654 C82.5627587,1.98082654 82.238339,2.15758312 81.8244431,2.15758312 C81.5307637,2.15758312 81.2348885,2.09884724 80.8791796,2.09884724 C79.9339161,2.09884724 79.6978747,2.48255176 79.0193929,2.54128764 C78.0428402,2.54128764 77.5422129,3.33998588 76.7726081,3.75278388 C76.269785,4.01956556 75.8273446,4.87590182 75.0884801,5.70369354 C74.2612373,6.64895703 73.5536621,8.45110571 73.5536621,9.8388096 C73.5536621,10.223612 73.1979532,10.991021 73.1979532,11.6420561 C73.1979532,13.7686245 73.7897035,17.5211339 76.0342926,19.2343554 C76.979556,19.9435775 77.7782543,21.037053 79.579854,21.5975141 C80.4652838,21.8637469 81.7668051,21.9526741 82.8300893,21.9823165 C83.5974983,21.9823165 85.1059676,21.5085869 85.606046,21.1841672 C86.2268898,20.8004627 86.9366608,20.3574733 86.9366608,19.2052619" id="Fill-14" fill="#000000"></path>
                    <g id="Group-18" transform="translate(98.345036, 0.000000)">
                        <mask id="mask-4" fill="white">
                            <use xlink:href="#path-3"></use>
                        </mask>
                        <g id="Clip-17"></g>
                        <path d="M22.5430521,19.1451537 C23.0458752,18.7614492 23.2215339,17.9929423 23.6063363,17.6377823 C23.9911386,17.2540778 24.1667974,16.6639743 24.6119824,15.4815715 C25.0258783,14.3590025 25.2904642,13.0887704 25.2904642,12.0243883 C25.2904642,11.6104925 25.350298,11.3162641 25.350298,10.9023683 C25.350298,10.6954203 25.350298,10.4582811 25.2904642,10.2227886 C25.0835163,9.39499686 24.9945891,8.03583752 24.6696205,7.3277133 C24.3737453,6.61794228 23.8418287,5.17095358 23.3395546,4.75705772 C22.6006901,4.10657152 22.3651976,3.722867 21.9513018,3.36770703 C21.5374059,3.07292974 20.7101631,2.48282622 20.0316813,2.24568695 C19.4997647,2.06893036 18.3190088,1.59629862 17.8738237,1.59629862 C17.7870922,1.59629862 17.6092378,1.6550345 17.6092378,1.80324655 C17.6092378,2.06893036 18.2009881,2.36370765 19.1149624,2.77705458 C20.3851945,3.36770703 21.2129862,5.25878294 21.6554266,5.55465809 C22.1006117,5.87907779 22.8389272,7.47537641 22.9569479,8.39099749 C23.0749686,9.3071675 23.1035132,9.95710477 23.1035132,10.4582811 C23.1035132,10.8721769 23.2813676,11.8476317 23.2813676,12.5272114 C23.2813676,13.3248118 22.8680207,14.0631274 22.7209065,14.8909191 C22.5721455,15.3635508 22.6006901,16.3088143 22.3651976,16.8105395 C22.1006117,17.3133626 21.9513018,17.8749216 21.3908407,18.4068381 C20.8303795,18.9672992 20.5921424,19.2038896 20.2386292,19.6177854 C19.9136606,20.0316813 19.2038896,20.6525251 19.175345,20.8578262 C19.175345,20.9182089 19.2642723,20.9769448 19.4108375,20.9769448 C19.7067127,20.9769448 20.2386292,20.8292817 20.5345044,20.5630489 C20.9769448,20.149702 21.9513018,19.6177854 22.5430521,19.1451537 M16.7529015,21.124059 C17.6668758,21.124059 17.6377823,20.4455772 18.3766468,20.0316813 C18.8794699,19.7358061 19.3219103,18.9080144 20.0602258,18.0516782 C20.8880176,17.1064147 21.5374059,15.3333595 21.5374059,13.9456556 C21.5374059,13.5603043 21.8623745,12.7632528 21.8623745,12.1435069 C21.8623745,11.5517566 21.775643,9.92691343 21.6263331,9.33626098 C21.2129862,7.82888959 20.0915151,4.8157936 18.9683971,3.98855082 C17.9940402,3.27987767 17.0773212,1.68412798 15.2153388,1.68412798 C14.8305364,1.68412798 14.5950439,1.6550345 14.330458,1.6550345 C12.9400094,1.6550345 12.9109159,2.06893036 12.1144134,2.15675972 C11.1378607,2.15675972 10.6064931,2.95545797 9.83908407,3.36770703 C9.33626098,3.63503764 8.89327164,4.4913739 8.15495609,5.31861669 C7.3277133,6.26442911 6.38190088,8.06602886 6.38190088,9.45428168 C6.38190088,9.83908407 6.05748118,10.6064931 6.05748118,11.2569793 C6.05748118,11.8476317 6.14640841,13.4724749 6.29297365,14.0631274 C6.70686951,15.5704987 7.3277133,17.4901192 9.12931305,18.8492785 C10.4884724,19.8834693 11.4337359,21.5088614 14.9798463,21.5088614 C15.5112139,21.5088614 16.3390056,21.124059 16.7529015,21.124059 M5.08312422,4.28442597 C4.51991844,4.46118256 3.95945734,5.22968946 3.57465496,5.61339398 C2.36480552,6.82489021 1.6550345,9.39499686 1.62594103,11.3448087 C1.62594103,11.7587045 1.5370138,12.1133156 1.5370138,12.4970201 C1.5370138,12.703968 1.56610728,12.9411073 1.62594103,13.1765997 C1.77305521,13.9742001 1.92181619,15.3635508 2.18640213,16.072224 C2.48227729,16.781446 3.22114178,17.9040151 3.78160289,18.2586261 C4.28442597,18.672522 5.08312422,19.6177854 5.49702008,19.9427541 C5.87907779,20.2671738 7.00274467,21.0060383 7.68122647,21.2426286 C8.8647271,21.5374059 10.10367,21.8634724 10.5488551,21.8634724 C10.6064931,21.8634724 10.7552541,21.8634724 10.7552541,21.7158093 C10.7552541,21.4199341 9.63213614,21.124059 8.68687265,20.6810696 C7.38754705,20.0602258 6.82489021,18.9969417 6.38190088,18.7010665 C5.93946048,18.4068381 4.19549875,15.8949184 4.10657152,15.0089398 C3.95945734,14.0933187 3.9309128,13.4428325 3.9309128,12.9411073 C3.9309128,12.5272114 3.75250941,11.5517566 3.75250941,10.8721769 C3.75250941,10.1635038 4.10657152,9.3071675 4.34425972,8.50846926 C4.66922836,7.41664053 5.29007215,5.76160602 6.29297365,4.8157936 C6.79579674,4.28442597 6.94236198,4.0472867 7.29861982,3.69377353 C7.5341123,3.39789837 9.04038582,2.45263488 9.04038582,2.15675972 C9.04038582,2.09747491 8.9827478,2.06893036 8.8647271,2.06893036 C8.59739649,2.06893036 7.23823714,2.60029799 6.79579674,3.01419385 C6.35335634,3.42808971 5.70341907,4.16640527 5.08312422,4.28442597 M7.14930991,22.3059128 C5.20114492,21.47867 5.64358532,21.3019134 4.4913739,20.7990903 C3.63503764,20.4153858 2.54046424,19.3219103 1.92181619,18.4353827 C0.856336261,16.8407309 0.738315558,15.865276 0.266781681,14.4468319 C0.0312892095,13.7974435 0,12.9998432 0,12.2900721 C0,10.9912955 0.20694793,9.80889272 0.445185069,9.45428168 C0.856336261,8.80434442 1.00564617,7.23823714 1.44808657,6.64813363 C2.54046424,5.17095358 2.80724592,4.8157936 3.60594417,4.10657152 C4.07747804,3.69377353 4.72686637,3.19095044 5.29007215,3.19095044 C5.79015056,3.19095044 5.67212986,2.86653074 5.82143977,2.57065558 C5.99709849,2.24568695 6.67777604,1.59629862 7.8881744,1.18240276 C9.12931305,0.768506901 10.0745765,0.384802384 11.226788,0.295875157 C12.2011449,0.237139272 13.3533563,0 14.388096,0 C17.8738237,0.0587358846 20.0316813,0.679579674 20.917111,1.06438206 C22.8680207,1.89052698 22.0693225,2.03873902 23.2215339,2.60029799 C25.9398526,3.92981493 27.801835,8.18404956 27.801835,11.0791248 C27.801835,12.4091907 27.6552698,13.5904956 27.3879391,13.9456556 C26.9740433,14.5950439 26.7961888,16.1309598 26.3537484,16.7518036 C25.2904642,18.2284348 25.1724435,18.5835947 24.3446518,19.2631744 C23.459771,20.0904172 22.9278545,20.00149 22.5430521,20.6223338 C22.3651976,20.9467535 21.6263331,21.9222083 20.4164837,22.3361041 C18.465574,22.9854925 16.4279329,23.3104611 14.1811481,23.369197 C10.5488551,23.2517252 8.06602886,22.6896173 7.14930991,22.3059128" id="Fill-16" fill="#000000" mask="url(#mask-4)"></path>
                    </g>
                    <path d="M16.0732982,4.87496863 C16.0732982,5.34760038 17.0789444,6.58873902 17.4626489,7.3863394 C17.9050893,8.30196048 18.4666483,8.77459222 18.732881,9.51290778 C19.0287562,10.2528701 19.2357041,11.2272271 19.5892173,11.3161543 C19.9152838,11.434175 20.061849,11.5231023 20.061849,12.1137547 C20.061849,12.6753137 20.7123352,13.5903858 21.0071125,14.3292503 C21.2744431,15.0675659 21.5099356,14.8320734 21.6866922,15.6291248 C21.8650956,16.4569166 22.2784425,16.7226004 22.4551991,17.2243256 C22.6034111,17.7556932 22.9871156,18.1695891 23.3708202,18.9973808 C23.8434519,19.8537171 23.8143584,19.9124529 24.0503998,20.5634881 C24.3160836,21.2430678 24.3764663,21.8035289 24.7887154,21.951192 C24.9369274,22.0104768 25.1147819,22.0104768 25.3508233,22.0104768 C25.9711182,22.0104768 26.7989099,21.8924561 27.3000862,21.8924561 C27.4482982,21.8924561 27.5372254,21.8035289 27.5372254,21.6564147 C27.5372254,21.1837829 26.8274544,20.0903074 26.385014,19.4398212 C25.823455,18.6422208 25.5572223,17.7858846 25.2915385,17.4900094 C25.0845905,17.1952321 24.907834,16.1610414 24.6712436,16.0430207 C24.2875391,15.8651662 23.1051363,13.2066813 22.8103591,12.5863864 C21.8058107,10.4581713 20.5646721,8.18393977 19.29444,6.08646487 C18.8218082,5.31905583 18.732881,4.90515997 18.4381037,4.49126412 C18.1707731,4.04717691 17.758524,2.83622961 17.4324575,2.83622961 C17.048753,2.83622961 16.5761213,3.48671581 16.4581006,3.92970514 C16.3104375,4.28431619 16.0732982,4.52035759 16.0732982,4.87496863 M7.09329506,20.622224 C6.85615579,21.0646644 6.41371539,21.3605395 6.32423923,21.8633626 C6.32423923,22.0401192 6.64920786,22.0692127 7.0038189,22.0692127 C8.36352719,22.0401192 8.83615893,21.951192 8.83615893,21.8924561 C8.83615893,21.6564147 8.36352719,21.3308971 8.27405102,21.0361198 C8.24440862,20.7698871 8.21531514,20.5332967 8.21531514,20.3565402 C8.21531514,20.0903074 8.30424237,19.5589398 8.30424237,19.5002039 C8.30424237,19.3810853 8.27405102,19.3218005 8.1851238,19.3218005 C7.94963133,19.3218005 7.29859619,20.2972553 7.09329506,20.622224" id="Fill-19"></path>
                    <path d="M55.3926363,4.40228199 C55.5408484,5.08186167 55.5995843,5.79163269 55.5995843,6.44102102 C55.5995843,6.64796895 55.5693929,6.85491688 55.5693929,7.06186481 C55.4217298,8.65651662 54.800886,9.2180756 53.7677932,10.1046032 C53.323706,10.4883077 51.7290542,11.7887312 51.8767173,11.7887312 C52.4382762,11.7887312 54.800886,11.0504156 55.8350767,10.0749608 C56.8698164,9.12914837 57.7261527,7.91820107 57.7261527,6.85491688 C57.7261527,5.46556619 57.3122568,4.13659818 56.6041326,3.13204987 C56.2791639,2.65941813 55.2147819,2.27571361 54.8898133,2.03857434 C54.6543208,1.94964711 54.1514977,1.89091123 53.8265291,1.89091123 C53.6497725,1.89091123 53.5015604,1.92110257 53.5015604,1.97983846 C53.5015604,2.12750157 55.1856884,3.39773369 55.3926363,4.40228199 M49.3351552,13.4728592 C49.3351552,13.738543 50.2216828,14.5361434 50.3698948,14.6536151 C50.6064852,14.8320185 51.3738942,16.0720593 51.7290542,16.751639 C51.994738,17.4312186 52.5562969,17.8747569 52.9701928,18.8491139 C53.3538973,19.8245687 54.1811401,20.119346 54.5352022,20.6523604 C54.9485491,21.183728 55.8065322,21.5377902 56.3077085,21.8336653 C56.7808892,22.1295405 57.046573,22.158085 57.6674168,22.158085 C58.2877116,22.158085 58.0807637,22.3364884 59.0249293,22.3364884 C59.7347003,22.3364884 60.6799638,22.1295405 60.6799638,21.9511371 C60.4444714,21.7156446 60.3555441,21.7743805 59.3208045,21.5674326 C58.2877116,21.4197694 57.756344,20.8582105 57.1053089,20.5041484 C56.5448478,20.0908014 55.7763409,19.4112218 55.4804657,18.9973259 C55.1856884,18.6136214 54.2689695,17.5201459 54.1224042,17.1364413 C53.885265,16.7818303 52.7330535,15.3924796 52.3784425,14.8907544 C51.994738,14.3879313 49.8681696,13.3839319 49.4833672,13.3839319 C49.3955379,13.3839319 49.3351552,13.4135743 49.3351552,13.4728592 M39.3495059,1.53739806 C39.3495059,1.6839633 40.20694,2.12750157 40.20694,4.55049404 C40.20694,4.96384097 40.4138879,5.37773683 40.4138879,5.96838927 C40.4138879,6.38228513 40.2947693,6.79563206 40.2947693,7.32754862 C40.2947693,7.74144448 40.3249607,8.125149 40.3249607,8.50885351 C40.3249607,10.4295718 40.4429814,12.3491923 40.4731727,14.5657858 C40.4731727,14.9198479 40.2947693,15.215723 40.2947693,15.6581634 C40.2947693,16.3091986 40.4731727,16.9294934 40.4731727,17.7270938 C40.4731727,18.3177462 40.3540542,18.9973259 40.3540542,19.5286935 C40.3540542,19.6467142 40.3836966,19.7658328 40.3836966,19.9425894 C40.3836966,20.267558 40.2662248,20.7703811 39.9412562,21.183728 C39.7041169,21.5674326 39.3495059,21.6267174 39.3495059,21.8336653 C39.3495059,21.9225925 39.5273603,21.9225925 39.7634017,21.9225925 C40.3540542,21.9225925 42.6886683,21.8633077 42.7172129,21.5674326 C42.7474042,21.4197694 42.7775956,21.2715574 42.7775956,21.0948008 C42.7775956,20.680905 42.6886683,20.2082732 42.6886683,19.6769056 C42.6886683,18.9083987 42.6293835,18.4357669 42.5404563,18.1107983 C42.510265,17.9927776 42.510265,17.816021 42.510265,17.5788817 C42.510265,17.10625 42.5404563,16.4266703 42.5404563,15.8063755 C42.5404563,14.8320185 42.3636997,14.7727337 42.3636997,13.4728592 C42.3636997,11.6696126 42.3927932,10.1046032 42.3927932,8.47976004 C42.3927932,7.91820107 42.3049638,7.50430521 42.3049638,7.14969417 C42.3049638,6.76598965 42.510265,6.44102102 42.510265,5.93819793 C42.510265,5.46556619 42.4224356,4.66796581 42.3927932,4.13659818 L42.3927932,2.42227886 C42.3927932,1.33045013 41.0632762,1.33045013 40.6795717,1.33045013 C40.2360335,1.33045013 39.3495059,1.33045013 39.3495059,1.53739806" id="Fill-21"></path>
                    <path d="M87.9708515,14.2412563 C88.2354375,14.4783955 88.2667267,14.8319087 88.2958202,15.3649231 C88.3243647,15.6893428 88.3847474,16.3689225 88.3847474,16.9008391 C88.3847474,17.6089633 88.2958202,17.4020154 88.2958202,20.1505254 C88.2958202,20.5342299 88.3243647,20.7702713 88.5313126,20.7702713 C88.7091671,20.7702713 90.1265134,20.1796189 90.2154406,19.5587751 C90.2154406,18.7024388 90.2154406,18.288543 90.1863471,18.0530505 C90.1863471,17.4613002 90.2752744,16.4869432 90.2752744,15.4527525 C90.2752744,14.8319087 90.4223885,14.5069401 90.8961182,14.0930442 C91.2210868,13.8273604 91.4856727,13.6796973 91.4856727,13.5029407 C91.4856727,13.2668993 91.2496313,13.236708 91.0141389,13.236708 C90.4822223,13.236708 89.9508547,13.2959928 89.3300109,13.3261841 C88.6202399,13.2959928 87.9417581,13.236708 87.1430598,13.236708 C86.9652054,13.236708 86.8762781,13.2668993 86.8762781,13.38492 C86.8762781,13.6796973 87.6458829,13.9755725 87.9708515,14.2412563 M71.9881037,4.66950282 C71.3958045,4.84625941 70.8353434,5.61476631 70.4796345,5.99847083 C70.0970278,6.35308187 69.6232982,7.12158877 69.179211,8.30289366 C68.7367706,9.42546267 68.4985335,10.6967927 68.4985335,11.7600769 C68.4985335,12.1437814 68.4408954,12.5285838 68.4408954,12.9408328 C68.4408954,13.1477807 68.4408954,13.3547287 68.4985335,13.5616766 C68.6763879,14.359277 68.8256978,15.7486277 69.0902838,16.4567519 C69.3872568,17.1665229 70.1261213,18.288543 70.6289444,18.6437029 C71.160312,19.0570499 71.9881037,20.0028623 72.4014506,20.327282 C72.7840573,20.6522506 73.9675579,21.4800423 74.586206,21.6277055 C75.5627587,21.8637469 76.5969494,22.2183579 77.3934519,22.2485492 C77.4532857,22.2485492 77.6289444,22.2485492 77.6289444,22.1003372 C77.6289444,21.804462 76.5656602,21.4800423 75.6203967,21.037053 C74.3210711,20.4167582 73.7293208,19.3820185 73.2868804,19.0861434 C72.84444,18.7913661 71.2783327,16.2799953 71.1894055,15.3934677 C71.0713848,14.4783955 71.0422913,13.8273604 71.0422913,13.3261841 C71.0422913,12.5285838 70.8353434,11.7886214 70.8353434,10.9624765 C70.9824575,10.2828968 71.3359707,9.36617785 71.4561872,8.77552541 C71.5742079,8.24415778 71.8387938,7.26870295 72.0770309,6.7960712 C72.3125234,6.29434598 72.6951301,5.61476631 73.2577869,5.08284975 C73.7897035,4.49109944 74.2035993,4.19632215 74.528019,3.81261763 C74.792605,3.48710006 76.4190949,2.48255176 76.3010742,2.48255176 C75.4134488,2.48255176 74.4105473,2.74823557 73.7007762,3.3992707 C73.2577869,3.81261763 72.5771094,4.55148212 71.9881037,4.66950282" id="Fill-23"></path>
                    <path d="M120.888088,19.1451537 C121.390911,18.7614492 121.56657,17.9929423 121.951372,17.6377823 C122.336175,17.2540778 122.511833,16.6639743 122.957018,15.4815715 C123.370914,14.3590025 123.6355,13.0887704 123.6355,12.0243883 C123.6355,11.6104925 123.695334,11.3162641 123.695334,10.9023683 C123.695334,10.6954203 123.695334,10.4582811 123.6355,10.2227886 C123.428552,9.39499686 123.339625,8.03583752 123.014656,7.3277133 C122.718781,6.61794228 122.186865,5.17095358 121.684591,4.75705772 C120.945726,4.10657152 120.710234,3.722867 120.296338,3.36770703 C119.882442,3.07292974 119.055199,2.48282622 118.376717,2.24568695 C117.844801,2.06893036 116.664045,1.59629862 116.21886,1.59629862 C116.132128,1.59629862 115.954274,1.6550345 115.954274,1.80324655 C115.954274,2.06893036 116.546024,2.36370765 117.459998,2.77705458 C118.73023,3.36770703 119.558022,5.25878294 120.000463,5.55465809 C120.445648,5.87907779 121.183963,7.47537641 121.301984,8.39099749 C121.420005,9.3071675 121.448549,9.95710477 121.448549,10.4582811 C121.448549,10.8721769 121.626404,11.8476317 121.626404,12.5272114 C121.626404,13.3248118 121.213057,14.0631274 121.065942,14.8909191 C120.917182,15.3635508 120.945726,16.3088143 120.710234,16.8105395 C120.445648,17.3133626 120.296338,17.8749216 119.735877,18.4068381 C119.175416,18.9672992 118.937178,19.2038896 118.583665,19.6177854 C118.258697,20.0316813 117.548926,20.6525251 117.520381,20.8578262 C117.520381,20.9182089 117.609308,20.9769448 117.755873,20.9769448 C118.051749,20.9769448 118.583665,20.8292817 118.87954,20.5630489 C119.321981,20.149702 120.296338,19.6177854 120.888088,19.1451537 M103.42816,4.28442597 C102.864954,4.46118256 102.304493,5.22968946 101.919691,5.61339398 C100.709841,6.82489021 100.00007,9.39499686 99.970977,11.3448087 C99.970977,11.7587045 99.8820498,12.1133156 99.8820498,12.4970201 C99.8820498,12.703968 99.9111432,12.9411073 99.970977,13.1765997 C100.118091,13.9742001 100.266852,15.3635508 100.531438,16.072224 C100.827313,16.781446 101.566178,17.9040151 102.126639,18.2586261 C102.629462,18.672522 103.42816,19.6177854 103.842056,19.9427541 C104.224114,20.2671738 105.347781,21.0060383 106.026262,21.2426286 C107.209763,21.5374059 108.448706,21.8634724 108.893891,21.8634724 C108.951529,21.8634724 109.10029,21.8634724 109.10029,21.7158093 C109.10029,21.4199341 107.977172,21.124059 107.031909,20.6810696 C105.732583,20.0602258 105.169926,18.9969417 104.726937,18.7010665 C104.284496,18.4068381 102.540535,15.8949184 102.451607,15.0089398 C102.304493,14.0933187 102.275949,13.4428325 102.275949,12.9411073 C102.275949,12.5272114 102.097545,11.5517566 102.097545,10.8721769 C102.097545,10.1635038 102.451607,9.3071675 102.689296,8.50846926 C103.014264,7.41664053 103.635108,5.76160602 104.63801,4.8157936 C105.140833,4.28442597 105.287398,4.0472867 105.643656,3.69377353 C105.879148,3.39789837 107.385422,2.45263488 107.385422,2.15675972 C107.385422,2.09747491 107.327784,2.06893036 107.209763,2.06893036 C106.942432,2.06893036 105.583273,2.60029799 105.140833,3.01419385 C104.698392,3.42808971 104.048455,4.16640527 103.42816,4.28442597" id="Fill-25"></path>
                </g>
            </g>
        </g>
    </g>
</svg>