<?xml version="1.0" encoding="UTF-8"?>
<svg width="123px" height="35px" viewBox="0 0 123 35" version="1.1" xmlns="http://www.w3.org/2000/svg" xmlns:xlink="http://www.w3.org/1999/xlink">
    <title>ARGO</title>
    <g id="Symbols" stroke="none" stroke-width="1" fill="none" fill-rule="evenodd">
        <g id="Artboard" transform="translate(1.000000, -14.000000)" fill="#000000" fill-rule="nonzero">
            <g id="ARGO" transform="translate(-0.585000, 14.475000)">
                <path d="M14.535,0 L14.175,0 L5.355,24.165 C3.42,29.565 2.025,32.715 0,33.255 L0,33.525 L7.74,33.525 L7.74,33.255 C4.635,32.67 4.32,29.7 6.21,24.435 L6.795,22.86 L15.885,22.86 L18.045,28.98 C18.9,31.365 18.09,33.075 15.435,33.255 L15.435,33.525 L28.755,33.525 L28.755,33.255 C26.865,33.075 25.965,31.41 24.66,27.765 L14.535,0 Z M11.385,10.08 L15.525,21.78 L7.155,21.78 L11.385,10.08 Z" id="Shape"></path>
                <path d="M51.9171429,22.185 C50.7471429,19.935 49.5771429,18.27 48.2721429,17.505 L48.2721429,17.415 C52.5021429,16.335 55.5171429,13.5 55.5171429,9.18 C55.5171429,3.96 51.6921429,0.765 44.0871429,0.765 L30.4071429,0.765 L30.4071429,1.035 C33.4671429,1.035 33.6471429,3.285 33.6471429,6.615 L33.6471429,27.675 C33.6471429,31.005 33.4671429,33.255 30.4071429,33.255 L30.4071429,33.525 L43.6371429,33.525 L43.6371429,33.255 C40.5771429,33.255 40.3071429,31.005 40.3071429,27.675 L40.3071429,17.91 L41.3871429,17.91 C42.8271429,17.91 43.3221429,18.315 44.0421429,19.845 C49.5321429,32.58 50.3421429,33.705 54.0321429,33.705 C55.6071429,33.705 58.3971429,33.615 59.2971429,33.525 L59.2971429,33.255 C57.4521429,32.67 56.6421429,31.14 51.9171429,22.185 Z M40.3071429,3.105 C40.3071429,2.025 40.9371429,1.485 42.0171429,1.485 L42.9621429,1.485 C46.9221429,1.485 48.7221429,4.86 48.7221429,9.675 C48.7221429,14.625 46.6521429,17.19 42.9171429,17.19 L40.3071429,17.19 L40.3071429,3.105 Z" id="Shape"></path>
                <path d="M75.2592857,34.065 C80.0742857,34.065 84.2142857,32.535 86.7342857,30.825 L86.7342857,24.12 C86.7342857,20.79 86.8242857,18.9 88.1742857,18.72 L88.1742857,18.45 L77.3742857,18.45 L77.3742857,18.72 C79.9842857,18.9 80.1642857,20.79 80.1642857,24.12 L80.1642857,29.205 C80.1642857,31.815 78.5892857,33.435 75.4842857,33.435 C69.3642857,33.435 66.9342857,26.28 66.9342857,17.145 C66.9342857,7.785 69.7692857,0.855 75.5742857,0.855 C80.3892857,0.855 83.3592857,4.32 85.8342857,9.63 L86.1042857,9.63 L86.1042857,2.205 C83.9442857,1.26 80.5242857,0.225 75.7092857,0.225 C66.6192857,0.225 59.7342857,7.155 59.7342857,17.235 C59.7342857,27.405 65.5392857,34.065 75.2592857,34.065 Z" id="Path"></path>
                <path d="M106.476429,34.065 C115.701429,34.065 121.641429,27.135 121.641429,17.055 C121.641429,6.795 115.881429,0.225 106.566429,0.225 C97.3864286,0.225 91.4464286,7.155 91.4464286,17.235 C91.4464286,27.495 97.2064286,34.065 106.476429,34.065 Z M106.566429,33.435 C101.121429,33.435 98.6464286,26.235 98.6464286,17.145 C98.6464286,7.785 101.031429,0.855 106.521429,0.855 C111.921429,0.855 114.441429,8.055 114.441429,17.145 C114.441429,26.505 112.011429,33.435 106.566429,33.435 Z" id="Shape"></path>
            </g>
        </g>
    </g>
</svg>