<?xml version="1.0" encoding="UTF-8"?>
<svg width="15px" height="15px" viewBox="0 0 15 15" version="1.1" xmlns="http://www.w3.org/2000/svg" xmlns:xlink="http://www.w3.org/1999/xlink">
    <title>Combined Shape</title>
    <g id="Page-1" stroke="none" stroke-width="1" fill="none" fill-rule="evenodd">
        <path d="M14,0 C14.5522847,-1.01453063e-16 15,0.44771525 15,1 L15,5.5 C15,5.77614237 14.7761424,6 14.5,6 C14.2238576,6 14,5.77614237 14,5.5 L14,2 C14,1.91087468 13.9883406,1.82447258 13.9664637,1.74223577 L9.75735931,5.94974747 C9.56209717,6.14500961 9.24551468,6.14500961 9.05025253,5.94974747 C8.85499039,5.75448532 8.85499039,5.43790283 9.05025253,5.24264069 L13.2587751,1.03380574 C13.1762356,1.01175521 13.0894906,1 13,1 L9.5,1 C9.22385763,1 9,0.776142375 9,0.5 C9,0.223857625 9.22385763,5.07265313e-17 9.5,0 L14,0 Z M5.95330086,9.04355339 C6.148563,9.23881554 6.148563,9.55539803 5.95330086,9.75066017 L1.73920434,13.9656522 C1.82234835,13.9880521 1.90977888,14 2,14 L5.5,14 C5.77614237,14 6,14.2238576 6,14.5 C6,14.7761424 5.77614237,15 5.5,15 L1,15 C0.44771525,15 0,14.5522847 0,14 L0,9.5 C0,9.22385763 0.223857625,9 0.5,9 C0.776142375,9 1,9.22385763 1,9.5 L1,13 C1,13.0883948 1.01146909,13.1741108 1.03300036,13.2557412 L5.24619408,9.04355339 C5.44145622,8.84829124 5.75803871,8.84829124 5.95330086,9.04355339 Z" id="Combined-Shape" fill="#000000"></path>
    </g>
</svg>