<?xml version="1.0" encoding="UTF-8"?>
<svg width="13px" height="13px" viewBox="0 0 13 13" version="1.1" xmlns="http://www.w3.org/2000/svg" xmlns:xlink="http://www.w3.org/1999/xlink">
    <title>search_result_date_icon</title>
    <g id="1280" stroke="none" stroke-width="1" fill="none" fill-rule="evenodd">
        <g id="search_result_date_icon" transform="translate(0.122449, 0.250000)" fill="#4D4D4D" fill-rule="nonzero">
            <g id="uil:calender">
                <path d="M10.8418367,1.25 L9.56632653,1.25 L9.56632653,0.625 C9.56632653,0.279822031 9.28079385,0 8.92857143,0 C8.57634901,0 8.29081633,0.279822031 8.29081633,0.625 L8.29081633,1.25 L4.46428571,1.25 L4.46428571,0.625 C4.46428571,0.279822031 4.17875303,0 3.82653061,0 C3.4743082,0 3.18877551,0.279822031 3.18877551,0.625 L3.18877551,1.25 L1.91326531,1.25 C0.856598055,1.25 0,2.08946609 0,3.125 L0,10.625 C0,11.6605339 0.856598055,12.5 1.91326531,12.5 L10.8418367,12.5 C11.898504,12.5 12.755102,11.6605339 12.755102,10.625 L12.755102,3.125 C12.755102,2.08946609 11.898504,1.25 10.8418367,1.25 Z M11.4795918,10.625 C11.4795918,10.970178 11.1940592,11.25 10.8418367,11.25 L1.91326531,11.25 C1.56104289,11.25 1.2755102,10.970178 1.2755102,10.625 L1.2755102,6.25 L11.4795918,6.25 L11.4795918,10.625 Z M11.4795918,5 L1.2755102,5 L1.2755102,3.125 C1.2755102,2.77982203 1.56104289,2.5 1.91326531,2.5 L3.18877551,2.5 L3.18877551,3.125 C3.18877551,3.47017797 3.4743082,3.75 3.82653061,3.75 C4.17875303,3.75 4.46428571,3.47017797 4.46428571,3.125 L4.46428571,2.5 L8.29081633,2.5 L8.29081633,3.125 C8.29081633,3.47017797 8.57634901,3.75 8.92857143,3.75 C9.28079385,3.75 9.56632653,3.47017797 9.56632653,3.125 L9.56632653,2.5 L10.8418367,2.5 C11.1940592,2.5 11.4795918,2.77982203 11.4795918,3.125 L11.4795918,5 Z" id="Shape"></path>
            </g>
        </g>
    </g>
</svg>