<?xml version="1.0" encoding="UTF-8"?><svg version="1.1" width="17px" height="17px" viewBox="0 0 17.0 17.0" xmlns="http://www.w3.org/2000/svg" xmlns:xlink="http://www.w3.org/1999/xlink"><defs><clipPath id="i0"><path d="M1280,0 L1280,3198 L0,3198 L0,0 L1280,0 Z"></path></clipPath><clipPath id="i1"><path d="M3.29953807,0 C5.12182262,0 6.59907613,1.5104698 6.59907613,3.37372873 C6.59907613,5.23698766 5.12182262,6.74745746 3.29953807,6.74745746 C1.47725351,6.74745746 0,5.23698766 0,3.37372873 C0,1.5104698 1.47725351,0 3.29953807,0 Z"></path></clipPath><clipPath id="i2"><path d="M9.07372968,0 L9.07372968,1.74506119 C12.0594719,2.13425871 14.4103655,4.53801255 14.7910043,7.59088964 L16.4976903,7.59088964 L16.4976903,9.27775401 L14.7910043,9.27775401 C14.4106415,12.3307695 12.0596073,14.7346672 9.07372968,15.1235825 L9.07372968,16.8686437 L7.42396065,16.8686437 L7.42396065,15.1235825 C4.43821847,14.7343849 2.08732487,12.3306311 1.70668606,9.27775401 L0,9.27775401 L0,7.59088964 L1.70668606,7.59088964 C2.08787656,4.53828934 4.43848916,2.13482282 7.42396065,1.74506119 L7.42396065,0 L9.07372968,0 Z M8.24884516,3.37372873 C5.5193023,3.37372873 3.29953807,5.64340473 3.29953807,8.43432183 C3.29953807,11.2252389 5.5193023,13.4949149 8.24884516,13.4949149 C10.978388,13.4949149 13.1981523,11.2252389 13.1981523,8.43432183 C13.1981523,5.64340473 10.978388,3.37372873 8.24884516,3.37372873 Z"></path></clipPath></defs><g transform="translate(-530.0 -2069.0)"><g clip-path="url(#i0)"><g transform="translate(530.0 2069.0)"><g transform="translate(4.949307098142127 5.0605930957979135)"><g clip-path="url(#i1)"><polygon points="0,0 6.59907613,0 6.59907613,6.74745746 0,6.74745746 0,0" stroke="none" fill="#707070"></polygon></g></g><g clip-path="url(#i2)"><polygon points="0,0 16.4976903,0 16.4976903,16.8686437 0,16.8686437 0,0" stroke="none" fill="#707070"></polygon></g></g></g></g></svg>