<?xml version="1.0" encoding="UTF-8"?>
<svg width="19px" height="20px" viewBox="0 0 19 20" version="1.1" xmlns="http://www.w3.org/2000/svg" xmlns:xlink="http://www.w3.org/1999/xlink">
    <title>social_icon_FB</title>
    <g id="Symbols" stroke="none" stroke-width="1" fill="none" fill-rule="evenodd" opacity="0.600000024">
        <path d="M18,0.625 L0.75,0.625 C0.33515625,0.625 0,0.96015625 0,1.375 L0,18.625 C0,19.0398437 0.33515625,19.375 0.75,19.375 L18,19.375 C18.4148437,19.375 18.75,19.0398437 18.75,18.625 L18.75,1.375 C18.75,0.96015625 18.4148437,0.625 18,0.625 Z M15.834375,6.09765625 L14.3367187,6.09765625 C13.1625,6.09765625 12.9351563,6.65546875 12.9351563,7.47578125 L12.9351563,9.2828125 L15.7382812,9.2828125 L15.3726563,12.1117187 L12.9351563,12.1117187 L12.9351563,19.375 L10.0125,19.375 L10.0125,12.1140625 L7.56796875,12.1140625 L7.56796875,9.2828125 L10.0125,9.2828125 L10.0125,7.196875 C10.0125,4.77578125 11.4914062,3.45625 13.6523437,3.45625 C14.6882812,3.45625 15.5765625,3.53359375 15.8367187,3.56875 L15.8367187,6.09765625 L15.834375,6.09765625 Z" id="social_icon_FB" fill="#000000" fill-rule="nonzero"></path>
    </g>
</svg>