<?xml version="1.0" encoding="UTF-8"?>
<svg width="19px" height="20px" viewBox="0 0 19 20" version="1.1" xmlns="http://www.w3.org/2000/svg" xmlns:xlink="http://www.w3.org/1999/xlink">
    <title>social_icon_IG</title>
    <g id="Symbols" stroke="none" stroke-width="1" fill="none" fill-rule="evenodd" opacity="0.600000024">
        <path d="M9.375,6.87578125 C7.6546875,6.87578125 6.25078125,8.2796875 6.25078125,10 C6.25078125,11.7203125 7.6546875,13.1242187 9.375,13.1242187 C11.0953125,13.1242187 12.4992187,11.7203125 12.4992187,10 C12.4992187,8.2796875 11.0953125,6.87578125 9.375,6.87578125 Z M18.7453125,10 C18.7453125,8.70625 18.7570312,7.42421875 18.684375,6.1328125 C18.6117187,4.6328125 18.2695312,3.3015625 17.1726562,2.2046875 C16.0734375,1.10546875 14.7445312,0.765625 13.2445312,0.69296875 C11.9507812,0.6203125 10.66875,0.63203125 9.37734375,0.63203125 C8.08359375,0.63203125 6.8015625,0.6203125 5.51015625,0.69296875 C4.01015625,0.765625 2.67890625,1.1078125 1.58203125,2.2046875 C0.4828125,3.30390625 0.14296875,4.6328125 0.0703125,6.1328125 C-0.00234375,7.4265625 0.009375,8.70859375 0.009375,10 C0.009375,11.2914062 -0.00234375,12.5757812 0.0703125,13.8671875 C0.14296875,15.3671875 0.48515625,16.6984375 1.58203125,17.7953125 C2.68125,18.8945312 4.01015625,19.234375 5.51015625,19.3070312 C6.80390625,19.3796875 8.0859375,19.3679687 9.37734375,19.3679687 C10.6710937,19.3679687 11.953125,19.3796875 13.2445312,19.3070312 C14.7445312,19.234375 16.0757812,18.8921875 17.1726562,17.7953125 C18.271875,16.6960937 18.6117187,15.3671875 18.684375,13.8671875 C18.759375,12.5757812 18.7453125,11.29375 18.7453125,10 Z M9.375,14.8070312 C6.71484375,14.8070312 4.56796875,12.6601562 4.56796875,10 C4.56796875,7.33984375 6.71484375,5.19296875 9.375,5.19296875 C12.0351562,5.19296875 14.1820312,7.33984375 14.1820312,10 C14.1820312,12.6601562 12.0351562,14.8070312 9.375,14.8070312 Z M14.3789062,6.11875088 C13.7578125,6.11875088 13.25625,5.6171875 13.25625,4.99609375 C13.25625,4.375 13.7578125,3.8734375 14.3789062,3.8734375 C15,3.8734375 15.5015634,4.375 15.5015634,4.99609375 C15.5019363,5.29395514 15.3837768,5.57972439 15.1731569,5.79034436 C14.9625369,6.00096433 14.6767676,6.11912381 14.3789062,6.11875088 L14.3789062,6.11875088 Z" id="social_icon_IG" fill="#000000" fill-rule="nonzero"></path>
    </g>
</svg>