<?xml version="1.0" encoding="UTF-8"?>
<svg width="25px" height="24px" viewBox="0 0 25 24" version="1.1" xmlns="http://www.w3.org/2000/svg" xmlns:xlink="http://www.w3.org/1999/xlink">
    <title>social_icon_R</title>
    <g id="Symbols" stroke="none" stroke-width="1" fill="none" fill-rule="evenodd" opacity="0.600000024">
        <path d="M12.375,0 C5.745,0 0.375,5.37 0.375,12 C0.375,17.31 3.81,21.795 8.58,23.385 C9.18,23.49 9.405,23.13 9.405,22.815 C9.405,22.53 9.39,21.585 9.39,20.58 C6.375,21.135 5.595,19.845 5.355,19.17 C5.22,18.825 4.635,17.76 4.125,17.475 C3.705,17.25 3.105,16.695 4.11,16.68 C5.055,16.665 5.73,17.55 5.955,17.91 C7.035,19.725 8.76,19.215 9.45,18.9 C9.555,18.12 9.87,17.595 10.215,17.295 C7.545,16.995 4.755,15.96 4.755,11.37 C4.755,10.065 5.22,8.985 5.985,8.145 C5.865,7.845 5.445,6.615 6.105,4.965 C6.105,4.965 7.11,4.65 9.405,6.195 C10.365,5.925 11.385,5.79 12.405,5.79 C13.425,5.79 14.445,5.925 15.405,6.195 C17.7,4.635 18.705,4.965 18.705,4.965 C19.365,6.615 18.945,7.845 18.825,8.145 C19.59,8.985 20.055,10.05 20.055,11.37 C20.055,15.975 17.25,16.995 14.58,17.295 C15.015,17.67 15.39,18.39 15.39,19.515 C15.39,21.12 15.375,22.41 15.375,22.815 C15.375,23.13 15.6,23.505 16.2,23.385 C21.0845731,21.7358545 24.3735281,17.1554567 24.375,12 C24.375,5.37 19.005,0 12.375,0 Z" id="social_icon_R" fill="#000000"></path>
    </g>
</svg>